<svg xmlns="http://www.w3.org/2000/svg" xmlns:xlink="http://www.w3.org/1999/xlink" viewBox="0 0 900 135"><defs><style>.cls-1{fill:url(#linear-gradient);}.cls-2,.cls-3,.cls-4{fill:#fff;}.cls-3{opacity:0.7;}.cls-4{opacity:0.8;}</style><linearGradient id="linear-gradient" y1="67.5" x2="900" y2="67.5" gradientUnits="userSpaceOnUse"><stop offset="0" stop-color="#741fe3"/><stop offset="1" stop-color="#c444fb"/></linearGradient></defs><title>sizes3</title><rect class="cls-1" width="900" height="135" rx="17.09" ry="17.09"/><path class="cls-2" d="M61.33,73.36c-.08-1-.24-3.33-4.13-3.33-2.78,0-3.73,1.74-3.73,2.93,0,2,3.25,3.33,6.74,4.36,7.46,2.06,15.39,4.28,15.39,13.8,0,9.68-8.17,15.39-17.93,15.39-6.66,0-16.74-3-17.93-14.6H52.84c.56,4,4.44,4,5,4,2.22,0,4.6-1.27,4.6-3.41,0-3-3.25-3.41-11.66-6.66-5.71-1.83-10.47-5.55-10.47-11.5,0-9.12,7.93-14.91,17.06-14.91,5.79,0,15.79,2.3,16.9,13.88Z"/><path class="cls-2" d="M82.19,46.31H95.36v10H82.19Zm0,14.68H95.36v44H82.19Z"/><path class="cls-2" d="M101.31,96l18.56-25H101.31V61h32.76V71L116.86,95h17.21v10H101.31Z"/><path class="cls-2" d="M150.89,87.56c.56,4.68,5,7.77,10.15,7.77a8.87,8.87,0,0,0,8-4.13h13.49a25.83,25.83,0,0,1-9,11.27,21.4,21.4,0,0,1-12.54,4,23.36,23.36,0,0,1-23.32-23.32c0-12.3,9.68-23.64,23.09-23.64a22.52,22.52,0,0,1,16.66,7c5.55,5.95,7.22,13,6.19,21.1Zm19.83-10c-.32-2.06-3-7-9.84-7s-9.52,4.92-9.84,7Z"/><path class="cls-2" d="M210.08,73.36c-.08-1-.24-3.33-4.13-3.33-2.78,0-3.73,1.74-3.73,2.93,0,2,3.25,3.33,6.74,4.36,7.46,2.06,15.39,4.28,15.39,13.8,0,9.68-8.17,15.39-17.93,15.39-6.66,0-16.74-3-17.93-14.6h13.09c.56,4,4.44,4,5,4,2.22,0,4.6-1.27,4.6-3.41,0-3-3.25-3.41-11.66-6.66-5.71-1.83-10.47-5.55-10.47-11.5,0-9.12,7.93-14.91,17.06-14.91,5.79,0,15.78,2.3,16.9,13.88Z"/><polygon class="cls-3" points="304.72 105.03 290.66 105.03 290.66 100.49 300.19 100.49 300.19 31.35 243.79 31.35 243.79 26.82 304.72 26.82 304.72 105.03"/><polygon class="cls-4" points="284.14 105.03 279.61 105.03 279.61 42.25 248.32 42.25 248.32 51.71 243.79 51.71 243.79 37.72 284.14 37.72 284.14 105.03"/><rect class="cls-2" x="243.79" y="58.05" width="29.43" height="46.98"/></svg>
