<svg xmlns="http://www.w3.org/2000/svg" viewBox="0 0 900 135"><defs><style>.cls-1{fill:#fff;}.cls-2{fill:#f7f7f8;}.cls-3{fill:#eff0f0;}.cls-4{fill:#e8e9e9;}.cls-5{fill:#e0e1e2;}.cls-6{fill:#d8dada;}.cls-7{fill:#d0d2d3;}.cls-8{fill:#741fe3;}.cls-9{fill:#c444fb;}.cls-10{fill:#9c32ef;}</style></defs><title>sizes3</title><rect class="cls-1" x="-0.31" y="-0.85" width="901.05" height="136.12"/><rect class="cls-2" x="136.28" y="6.43" width="764.46" height="128.84"/><rect class="cls-3" x="281.48" y="24.08" width="619.26" height="111.19"/><rect class="cls-4" x="426.67" y="41.73" width="474.07" height="93.54"/><rect class="cls-5" x="571.86" y="59.38" width="328.88" height="75.89"/><rect class="cls-6" x="717.06" y="77.03" width="183.68" height="58.24"/><rect class="cls-7" x="862.25" y="94.68" width="38.49" height="40.59"/><path class="cls-8" d="M22.06,73.36c-.08-1-.24-3.33-4.13-3.33C15.16,70,14.2,71.77,14.2,73c0,2,3.25,3.33,6.74,4.36,7.46,2.06,15.39,4.28,15.39,13.8,0,9.68-8.17,15.39-17.93,15.39-6.66,0-16.74-3-17.93-14.6H13.57c.56,4,4.44,4,5,4,2.22,0,4.6-1.27,4.6-3.41,0-3-3.25-3.41-11.66-6.66C5.8,84.07,1,80.34,1,74.39,1,65.27,9,59.48,18.09,59.48c5.79,0,15.79,2.3,16.9,13.88Z"/><path class="cls-8" d="M42.92,46.31H56.09v10H42.92Zm0,14.68H56.09v44H42.92Z"/><path class="cls-8" d="M62,96,80.6,71H62V61H94.8V71L77.59,95H94.8v10H62Z"/><path class="cls-8" d="M111.62,87.56c.56,4.68,5,7.77,10.15,7.77a8.87,8.87,0,0,0,8-4.13h13.49a25.83,25.83,0,0,1-9,11.27,21.4,21.4,0,0,1-12.54,4A23.36,23.36,0,0,1,98.45,83.12c0-12.3,9.68-23.64,23.09-23.64a22.52,22.52,0,0,1,16.66,7c5.55,5.95,7.22,13,6.19,21.1Zm19.83-10c-.32-2.06-3-7-9.84-7s-9.52,4.92-9.84,7Z"/><path class="cls-8" d="M170.81,73.36c-.08-1-.24-3.33-4.13-3.33C163.9,70,163,71.77,163,73c0,2,3.25,3.33,6.74,4.36,7.46,2.06,15.39,4.28,15.39,13.8,0,9.68-8.17,15.39-17.93,15.39-6.66,0-16.74-3-17.93-14.6h13.09c.56,4,4.44,4,5,4,2.22,0,4.6-1.27,4.6-3.41,0-3-3.25-3.41-11.66-6.66-5.71-1.83-10.47-5.55-10.47-11.5,0-9.12,7.93-14.91,17.06-14.91,5.79,0,15.78,2.3,16.9,13.88Z"/><polygon class="cls-9" points="265.45 105.03 251.39 105.03 251.39 100.49 260.92 100.49 260.92 31.35 204.52 31.35 204.52 26.82 265.45 26.82 265.45 105.03"/><polygon class="cls-10" points="244.87 105.03 240.34 105.03 240.34 42.25 209.05 42.25 209.05 51.71 204.52 51.71 204.52 37.72 244.87 37.72 244.87 105.03"/><rect class="cls-8" x="204.52" y="58.05" width="29.43" height="46.98"/></svg>
