<svg id="Layer_1" data-name="Layer 1" xmlns="http://www.w3.org/2000/svg" viewBox="0 0 133.66 53.64"><defs><style>.cls-1{fill:#741fe3;}.cls-2{fill:#c444fb;}.cls-3{fill:#9c32ef;}</style></defs><title>sizes</title><path class="cls-1" d="M17.52,30.06c0-.42-.11-1.47-1.82-1.47-1.23,0-1.65.77-1.65,1.29,0,.88,1.44,1.47,3,1.93,3.29.91,6.79,1.89,6.79,6.09s-3.61,6.79-7.91,6.79C13,44.69,8.53,43.36,8,38.25h5.78A2.07,2.07,0,0,0,16,40c1,0,2-.56,2-1.5,0-1.33-1.44-1.51-5.15-2.94-2.52-.81-4.62-2.45-4.62-5.08,0-4,3.5-6.58,7.53-6.58,2.56,0,7,1,7.46,6.13Z"/><path class="cls-1" d="M26.73,18.12h5.81v4.41H26.73Zm0,6.48h5.81V44H26.73Z"/><path class="cls-1" d="M35.17,40l8.19-11H35.17V24.6H49.62V29L42,39.61h7.6V44H35.17Z"/><path class="cls-1" d="M57,36.32c.25,2.07,2.21,3.43,4.48,3.43a3.92,3.92,0,0,0,3.54-1.82h6a11.4,11.4,0,0,1-4,5,9.44,9.44,0,0,1-5.53,1.75,10.36,10.36,0,0,1-.1-20.72A9.94,9.94,0,0,1,68.77,27a10.85,10.85,0,0,1,2.73,9.31Zm8.75-4.41a4.6,4.6,0,0,0-8.68,0Z"/><path class="cls-1" d="M83.16,30.06c0-.42-.11-1.47-1.82-1.47-1.23,0-1.65.77-1.65,1.29,0,.88,1.44,1.47,3,1.93,3.29.91,6.79,1.89,6.79,6.09s-3.61,6.79-7.91,6.79c-2.94,0-7.39-1.33-7.91-6.44h5.78A2.07,2.07,0,0,0,81.62,40c1,0,2-.56,2-1.5,0-1.33-1.44-1.51-5.15-2.94-2.52-.81-4.62-2.45-4.62-5.08,0-4,3.5-6.58,7.53-6.58,2.55,0,7,1,7.46,6.13Z"/><polygon class="cls-2" points="124.92 44.03 118.72 44.03 118.72 42.03 122.92 42.03 122.92 11.52 98.03 11.52 98.03 9.52 124.92 9.52 124.92 44.03"/><polygon class="cls-3" points="115.84 44.03 113.84 44.03 113.84 16.33 100.03 16.33 100.03 20.5 98.03 20.5 98.03 14.33 115.84 14.33 115.84 44.03"/><rect class="cls-1" x="98.03" y="23.3" width="12.99" height="20.73"/></svg>