<svg xmlns="http://www.w3.org/2000/svg" viewBox="0 0 900 135"><defs></defs><title>sizes2</title><rect fill="#fff" x="-0.31" y="-0.85" width="901.05" height="136.12"/><rect fill="#f7f7f8" x="-0.31" y="6.43" width="764.46" height="128.84"/><rect fill="#eff0f0" x="-0.31" y="24.08" width="619.26" height="111.19"/><rect fill="#e8e9e9" x="-0.31" y="41.73" width="474.07" height="93.54"/><rect fill="#e0e1e2" x="-0.31" y="59.38" width="328.88" height="75.89"/><rect fill="#d8dada" x="-0.31" y="77.03" width="183.68" height="58.24"/><rect fill="#d0d2d3" x="-0.31" y="94.68" width="38.49" height="40.59"/><path fill="#741fe3" d="M623.87,73.36c-.08-1-.24-3.33-4.13-3.33C617,70,616,71.77,616,73c0,2,3.25,3.33,6.74,4.36,7.46,2.06,15.39,4.28,15.39,13.8,0,9.68-8.17,15.39-17.93,15.39-6.66,0-16.74-3-17.93-14.6h13.09c.56,4,4.44,4,5,4,2.22,0,4.6-1.27,4.6-3.41,0-3-3.25-3.41-11.66-6.66-5.71-1.83-10.47-5.55-10.47-11.5,0-9.12,7.93-14.91,17.06-14.91,5.79,0,15.79,2.3,16.9,13.88Z"/><path fill="#741fe3" d="M644.73,46.31H657.9v10H644.73Zm0,14.68H657.9v44H644.73Z"/><path fill="#741fe3" d="M663.85,96l18.56-25H663.85V61h32.76V71L679.4,95h17.21v10H663.85Z"/><path fill="#741fe3" d="M713.43,87.56c.56,4.68,5,7.77,10.15,7.77a8.87,8.87,0,0,0,8-4.13h13.49a25.83,25.83,0,0,1-9,11.27,21.4,21.4,0,0,1-12.54,4,23.36,23.36,0,0,1-23.32-23.32c0-12.3,9.68-23.64,23.09-23.64a22.52,22.52,0,0,1,16.66,7c5.55,5.95,7.22,13,6.19,21.1Zm19.83-10c-.32-2.06-3-7-9.84-7s-9.52,4.92-9.84,7Z"/><path fill="#741fe3" d="M772.61,73.36c-.08-1-.24-3.33-4.13-3.33-2.78,0-3.73,1.74-3.73,2.93,0,2,3.25,3.33,6.74,4.36,7.46,2.06,15.39,4.28,15.39,13.8,0,9.68-8.17,15.39-17.93,15.39-6.66,0-16.74-3-17.93-14.6h13.09c.56,4,4.44,4,5,4,2.22,0,4.6-1.27,4.6-3.41,0-3-3.25-3.41-11.66-6.66-5.71-1.83-10.47-5.55-10.47-11.5,0-9.12,7.93-14.91,17.06-14.91,5.79,0,15.78,2.3,16.9,13.88Z"/><polygon fill="#c444fb" points="867.26 105.03 853.2 105.03 853.2 100.49 862.72 100.49 862.72 31.35 806.33 31.35 806.33 26.82 867.26 26.82 867.26 105.03"/><polygon fill="#9c32ef" points="846.68 105.03 842.15 105.03 842.15 42.25 810.86 42.25 810.86 51.71 806.33 51.71 806.33 37.72 846.68 37.72 846.68 105.03"/><rect fill="#741fe3" x="806.33" y="58.05" width="29.43" height="46.98"/></svg>
